<?xml version="1.0" encoding="utf-8"?>
<svg version="1.1" id="logo" xmlns="http://www.w3.org/2000/svg" xmlns:xlink="http://www.w3.org/1999/xlink" viewBox="0 0 200 100" xml:space="preserve">
<path d="M54.6,88.1h0.3v0.3v1.9v0.3h-0.3H52v7.2v0.3h-0.3h-1.9h-0.3v-0.3v-7.2h-2.6h-0.3v-0.3v-1.9v-0.3h0.3H54.6z M81.5,92.8
	c-0.3-0.3-0.6-0.5-1-0.7s-0.8-0.2-1.2-0.2h-1.9c-0.1,0-0.2,0-0.2-0.1c-0.1-0.1-0.1-0.1-0.2-0.2s-0.1-0.2-0.1-0.2c0-0.1,0-0.2,0-0.2
	s0-0.2,0-0.2c0-0.1,0.1-0.2,0.1-0.2c0-0.1,0.1-0.1,0.2-0.2c0.1-0.1,0.1-0.1,0.2-0.1h4.5h0.3v-0.3v-1.9v-0.3h-0.3h-4.5
	c-0.4,0-0.8,0.1-1.2,0.2c-0.4,0.2-0.7,0.4-1,0.7c-0.3,0.3-0.5,0.6-0.7,1c-0.1,0.4-0.2,0.8-0.2,1.2c0,0.4,0.1,0.8,0.2,1.2
	s0.4,0.7,0.7,1c0.3,0.3,0.6,0.5,1,0.7c0.4,0.2,0.8,0.2,1.2,0.2h1.9c0.1,0,0.2,0,0.2,0.1c0.1,0.1,0.1,0.1,0.2,0.2s0.1,0.2,0.1,0.2
	c0,0,0,0.2,0,0.2s0,0.2,0,0.2c0,0.1-0.1,0.2-0.1,0.2c0,0.1-0.1,0.1-0.2,0.2c-0.1,0.1-0.1,0.1-0.2,0.1h-4.3h-0.3v0.3v1.9v0.3h0.3h4.3
	c0.4,0,0.8-0.1,1.2-0.2s0.7-0.4,1-0.7c0.3-0.3,0.5-0.6,0.7-1s0.2-0.8,0.2-1.2c0-0.4-0.1-0.8-0.2-1.2C82.1,93.4,81.8,93.1,81.5,92.8z
	 M89.7,61.8c2.6-2.5,4.6-5.5,6.1-8.9c1.5-3.4,2.2-7,2.2-10.9V0H83.8v42c0,1.9-0.3,3.8-1.1,5.4c-0.7,1.7-1.7,3.2-3,4.5
	c-1.3,1.2-2.8,2.2-4.5,3c-1.7,0.8-3.6,1.1-5.5,1.1c-1.9,0-3.8-0.3-5.5-1.1s-3.2-1.8-4.5-3c-1.3-1.2-2.3-2.8-3-4.5S55.3,44,55.3,42V0
	H41.1v42c0,3.8,0.7,7.5,2.2,10.9c1.5,3.4,3.5,6.3,6,8.9c2.5,2.5,5.5,4.5,9,6c3.4,1.4,7.1,2.2,11.1,2.2c3.9,0,7.6-0.8,11.1-2.2
	C84.1,66.3,87.1,64.3,89.7,61.8z M66,96.1h-0.3v0.3v1.4v0.3H66h1.5h0.3v-0.3v-1.4v-0.3h-0.3H66z M62.1,88.1h-0.3v0.3v2.8
	c0,0.2,0,0.4-0.1,0.6c-0.1,0.2-0.2,0.3-0.3,0.5c-0.1,0.2-0.3,0.2-0.5,0.3s-0.4,0.1-0.6,0.1c-0.2,0-0.4-0.1-0.6-0.1
	c-0.2-0.1-0.4-0.2-0.5-0.3c-0.1-0.2-0.2-0.3-0.3-0.5s-0.1-0.4-0.1-0.6v-2.8v-0.3h-0.3h-1.9h-0.3v0.3v2.8c0,0.4,0.1,0.9,0.2,1.3
	c0.1,0.4,0.3,0.8,0.6,1.2c0.3,0.3,0.6,0.7,1,0.9c0.3,0.2,0.7,0.3,1,0.5v2.8v0.3h0.3h1.9h0.3v-0.3v-2.8c0.4-0.1,0.7-0.3,1-0.5
	c0.4-0.2,0.7-0.6,1-0.9s0.5-0.8,0.6-1.2c0.1-0.4,0.2-0.8,0.2-1.3v-2.8v-0.3h-0.2H62.1z M31,90.6c0.2,0.5,0.3,1,0.3,1.6v5.7v0.3h-0.3
	h-2h-0.3v-0.3v-1.6h-3.3v1.6v0.3h-0.3h-1.9h-0.3v-0.3v-5.7c0-0.6,0.1-1.1,0.3-1.6c0.2-0.5,0.5-0.9,0.9-1.3c0.4-0.3,0.8-0.7,1.3-0.8
	s1-0.3,1.6-0.3s1.1,0.1,1.6,0.3c0.5,0.2,0.9,0.5,1.3,0.8C30.5,89.7,30.8,90.1,31,90.6z M28.8,92.2c0-0.2,0-0.4-0.1-0.6
	c-0.1-0.2-0.2-0.3-0.3-0.5c-0.1-0.2-0.3-0.2-0.5-0.3c-0.2-0.1-0.4-0.1-0.6-0.1c-0.2,0-0.4,0.1-0.6,0.1c-0.2,0.1-0.4,0.2-0.5,0.3
	c-0.1,0.2-0.2,0.3-0.3,0.5s-0.1,0.4-0.1,0.6v1.6h3.3L28.8,92.2L28.8,92.2z M42.7,88.1h-0.3v0.3v9.4v0.3h0.3h1.9H45v-0.3v-9.4v-0.3
	h-0.3H42.7z M10.6,91.8c0.1,0.4,0.2,0.9,0.2,1.3c0,0.5,0,0.9-0.2,1.4c-0.1,0.4-0.3,0.9-0.6,1.3S9.4,96.7,9.1,97
	c-0.3,0.2-0.6,0.4-0.9,0.7l1.3,1.9l0.3,0.4H9.2H7H6.8l-0.1-0.2l-1.1-1.6c0,0,0,0,0,0H5.4c-0.5,0-0.9-0.1-1.4-0.2
	c-0.4-0.1-0.9-0.3-1.3-0.5c-0.4-0.2-0.7-0.5-1.1-0.8S1,96.1,0.7,95.7s-0.4-0.8-0.5-1.2S0,93.6,0,93.1s0-0.9,0.2-1.3
	c0.1-0.4,0.3-0.8,0.5-1.2s0.5-0.8,0.8-1.1c0.3-0.3,0.7-0.6,1.1-0.8c0.4-0.2,0.8-0.4,1.3-0.5S4.9,88,5.4,88s0.9,0.1,1.4,0.2
	c0.4,0.1,0.9,0.3,1.3,0.5c0.4,0.2,0.7,0.5,1.1,0.8c0.3,0.3,0.6,0.7,0.8,1.1C10.3,90.9,10.5,91.3,10.6,91.8z M8.3,93.2
	c0-0.3-0.1-0.7-0.2-1.1c-0.1-0.3-0.3-0.6-0.6-0.8s-0.5-0.4-0.9-0.6c-0.3-0.2-0.7-0.2-1.1-0.2s-0.7,0.1-1.1,0.2
	C4,90.8,3.7,91,3.5,91.2S3,91.8,2.9,92.1c-0.1,0.3-0.2,0.7-0.2,1.1s0,0.7,0.2,1.1c0.1,0.3,0.3,0.6,0.6,0.8s0.5,0.4,0.9,0.6
	c0.3,0.2,0.7,0.2,1.1,0.2s0.7-0.1,1.1-0.2c0.3-0.2,0.6-0.3,0.9-0.6s0.4-0.6,0.6-0.8C8.2,93.9,8.3,93.6,8.3,93.2z M18.6,88.1h-0.3
	v0.3v5.7c0,0.2,0,0.4-0.1,0.6S18,95,17.8,95.2c-0.1,0.2-0.3,0.2-0.5,0.3c-0.2,0.1-0.4,0.1-0.6,0.1c-0.2,0-0.4-0.1-0.6-0.1
	c-0.2-0.1-0.4-0.2-0.5-0.3c-0.1-0.2-0.2-0.3-0.3-0.5c-0.1-0.2-0.1-0.4-0.1-0.6v-5.7v-0.3h-0.3h-1.9h-0.3v0.3v5.7
	c0,0.6,0.1,1.1,0.3,1.6c0.2,0.5,0.5,0.9,0.9,1.3c0.4,0.3,0.8,0.7,1.3,0.8s1,0.3,1.6,0.3c0.6,0,1.1-0.1,1.6-0.3
	c0.5-0.2,0.9-0.5,1.3-0.8s0.7-0.8,0.9-1.3c0.2-0.5,0.3-1,0.3-1.6v-5.7v-0.3h-0.3H18.6z M36.1,95.7v-7.2v-0.3h-0.3h-1.9h-0.3v0.3v9.4
	v0.3h0.3h6.8H41v-0.3v-1.9v-0.3h-0.3L36.1,95.7L36.1,95.7z M35.6,0H21.5h0H7.3v13.9h14.1v28c0,1.9-0.3,3.8-1.1,5.4
	c-0.7,1.7-1.7,3.2-3,4.5c-1.3,1.2-2.8,2.2-4.5,3S9.2,56,7.2,56c-1.2,0-2.5-0.2-3.7-0.5S1.2,54.7,0.1,54v15C2.5,69.7,4.9,70,7.3,70
	c3.9,0,7.6-0.8,11.1-2.2s6.4-3.4,9-6c2.5-2.5,4.6-5.5,6.1-8.9c1.5-3.4,2.2-7,2.2-10.9V0H35.6z M169.4,90.6c0.2,0.5,0.3,1,0.3,1.6
	v5.7v0.3h-0.3h-1.9h-0.3v-0.3v-1.6h-3.3v1.6v0.3h-0.3h-1.9h-0.3v-0.3v-5.7c0-0.6,0.1-1.1,0.3-1.6c0.2-0.5,0.5-0.9,0.9-1.3
	c0.4-0.3,0.8-0.7,1.3-0.8s1-0.3,1.6-0.3s1.1,0.1,1.6,0.3c0.5,0.2,0.9,0.5,1.3,0.8C168.9,89.7,169.2,90.1,169.4,90.6z M167.2,92.2
	c0-0.2,0-0.4-0.1-0.6c-0.1-0.2-0.2-0.3-0.3-0.5c-0.1-0.2-0.3-0.2-0.5-0.3c-0.2-0.1-0.4-0.1-0.6-0.1c-0.2,0-0.4,0.1-0.6,0.1
	c-0.2,0.1-0.4,0.2-0.5,0.3c-0.1,0.2-0.2,0.3-0.3,0.5c-0.1,0.2-0.1,0.4-0.1,0.6v1.6h3.3L167.2,92.2L167.2,92.2z M157.4,88.1h-0.3v0.3
	v2.8c0,0.2,0,0.4-0.1,0.6c-0.1,0.2-0.2,0.3-0.3,0.5c-0.1,0.2-0.3,0.2-0.5,0.3c-0.2,0.1-0.4,0.1-0.6,0.1s-0.4-0.1-0.6-0.1
	c-0.2-0.1-0.4-0.2-0.5-0.3c-0.1-0.2-0.2-0.3-0.3-0.5c-0.1-0.2-0.1-0.4-0.1-0.6v-2.8v-0.3h-0.2h-2h-0.3v0.3v2.8
	c0,0.4,0.1,0.9,0.2,1.3c0.1,0.4,0.3,0.8,0.6,1.2c0.3,0.3,0.6,0.7,1,0.9c0.3,0.2,0.7,0.3,1,0.5v2.8v0.3h0.3h1.9h0.3v-0.3v-2.8
	c0.4-0.1,0.7-0.3,1-0.5c0.4-0.2,0.7-0.6,1-0.9s0.5-0.8,0.6-1.2s0.2-0.8,0.2-1.3v-2.8v-0.3h-0.3H157.4z M194.3,88.1H194v0.3v2.8
	c0,0.2,0,0.4-0.1,0.6c-0.1,0.2-0.2,0.3-0.3,0.5c-0.1,0.2-0.3,0.2-0.5,0.3c-0.2,0.1-0.4,0.1-0.6,0.1s-0.4-0.1-0.6-0.1
	c-0.2-0.1-0.4-0.2-0.5-0.3c-0.1-0.2-0.2-0.3-0.3-0.5s-0.1-0.4-0.1-0.6v-2.8v-0.3h-0.3h-1.9h-0.3v0.3v2.8c0,0.4,0.1,0.9,0.2,1.3
	c0.1,0.4,0.3,0.8,0.6,1.2c0.3,0.3,0.6,0.7,1,0.9c0.3,0.2,0.7,0.3,1,0.5v2.8v0.3h0.3h1.9h0.3v-0.3v-2.8c0.4-0.1,0.7-0.3,1-0.5
	c0.4-0.2,0.7-0.6,1-0.9s0.5-0.8,0.6-1.2s0.2-0.8,0.2-1.3v-2.8v-0.3h-0.3H194.3z M174.4,95.7v-7.2v-0.3h-0.3h-1.9h-0.3v0.3v9.4v0.3
	h0.3h6.8h0.3v-0.3v-1.9v-0.3H179L174.4,95.7L174.4,95.7z M179,88.1h-0.3v0.3v1.9v0.3h0.3h2.6v7.2v0.3h0.3h1.9h0.3v-0.3v-7.2h2.6h0.3
	v-0.3v-1.9v-0.3h-0.3H179z M198.2,96.1h-0.3v0.3v1.4v0.3h0.3h1.5h0.3v-0.3v-1.4v-0.3h-0.3H198.2z M156,0h-12.9h-19.7
	c-2.9,0-5.7,0.6-8.3,1.6c-2.6,1.1-4.8,2.6-6.7,4.5c-1.9,1.9-3.4,4.1-4.6,6.7c-1.1,2.6-1.7,5.2-1.7,8.2s0.5,5.6,1.7,8.2
	c1.1,2.5,2.6,4.8,4.6,6.7c1.9,1.9,4.2,3.4,6.7,4.5c2.6,1.1,5.3,1.7,8.3,1.7h14.2c1,0,1.9,0.2,2.8,0.5c0.8,0.3,1.6,0.8,2.2,1.5
	c0.6,0.7,1.1,1.4,1.5,2.2c0.3,0.8,0.5,1.8,0.5,2.8s-0.2,1.9-0.5,2.8c-0.3,0.8-0.8,1.6-1.5,2.2c-0.6,0.7-1.4,1.2-2.2,1.5
	s-1.8,0.5-2.8,0.5H106v14h31.6c2.9,0,5.7-0.6,8.3-1.7s4.8-2.6,6.8-4.5s3.4-4.1,4.5-6.7c1.1-2.5,1.6-5.2,1.6-8.2s-0.5-5.6-1.6-8.2
	c-1.1-2.5-2.6-4.8-4.5-6.7c-1.9-1.9-4.2-3.4-6.8-4.5s-5.3-1.6-8.3-1.6h-14.2c-1,0-1.9-0.2-2.8-0.5c-0.8-0.4-1.6-0.9-2.2-1.5
	c-0.6-0.6-1.1-1.4-1.5-2.2s-0.5-1.8-0.5-2.8c0-1,0.2-1.9,0.5-2.8c0.3-0.9,0.8-1.6,1.5-2.2c0.6-0.6,1.4-1.1,2.2-1.5
	c0.8-0.4,1.8-0.6,2.8-0.6h19.7H156h8.5v56h14.2V14H200V0H156z M185.8,70H200V56h-14.2V70z M133.7,95.7v-7.2v-0.3h-0.3h-1.9h-0.3v0.3
	v9.4v0.3h0.3h6.8h0.3v-0.3v-1.9v-0.3h-0.3L133.7,95.7L133.7,95.7z M120.8,91.8c0.1,0.4,0.2,0.8,0.2,1.3c0,0.4,0,0.9-0.2,1.3
	c-0.1,0.4-0.3,0.8-0.5,1.2c-0.2,0.3-0.5,0.7-0.8,1c-0.3,0.3-0.6,0.6-1,0.8c-0.4,0.2-0.8,0.4-1.2,0.5c-0.4,0.1-0.9,0.2-1.4,0.2h-2.9
	h-0.3v-0.3v-9.4v-0.3h0.3h2.9c0.5,0,0.9,0.1,1.4,0.2c0.4,0.1,0.8,0.3,1.2,0.5s0.7,0.5,1,0.8c0.3,0.3,0.6,0.7,0.8,1
	C120.5,90.9,120.7,91.3,120.8,91.8z M118.4,93.1c0-0.3,0-0.7-0.2-1c-0.1-0.3-0.3-0.6-0.5-0.8c-0.2-0.2-0.5-0.4-0.8-0.6
	c-0.3-0.2-0.6-0.2-1-0.2h-0.7v5.1h0.7c0.3,0,0.7-0.1,1-0.2c0.3-0.2,0.6-0.3,0.8-0.6c0.2-0.2,0.4-0.5,0.5-0.8
	C118.4,93.8,118.4,93.4,118.4,93.1z M103.7,88.1h-0.3v0.3v9.4v0.3h0.3h6.7h0.3v-0.3v-1.9v-0.3h-0.3H106v-1.3h2.9h0.3V94v-1.9v-0.3
	h-0.3H106v-1.3h4.4h0.3v-0.3v-1.9V88h-0.3h-6.7V88.1z M94.6,88.1h-0.3v0.3v9.4v0.3h0.3h6.7h0.3v-0.3v-1.9v-0.3h-0.3h-4.4v-1.3h2.9
	h0.3V94v-1.9v-0.3h-0.3h-2.9v-1.3h4.4h0.3v-0.3v-1.9V88h-0.3h-6.7V88.1z M92.5,91.1c0.1,0.3,0.1,0.7,0.1,1.1c0,0.6-0.1,1.1-0.3,1.6
	c-0.2,0.5-0.5,0.9-0.9,1.3s-0.8,0.7-1.3,0.8c-0.5,0.2-1,0.3-1.6,0.3h-1.6v1.6v0.3h-0.3h-1.9h-0.3v-0.3v-9.4v-0.3h0.3h3.9
	c0.4,0,0.7,0.1,1.1,0.2s0.7,0.2,1,0.4c0.3,0.2,0.6,0.4,0.8,0.7s0.5,0.5,0.6,0.8C92.3,90.4,92.4,90.8,92.5,91.1z M90.1,92.2
	c0-0.2,0-0.4-0.1-0.6c-0.1-0.2-0.2-0.3-0.3-0.5s-0.3-0.2-0.5-0.3c-0.2-0.1-0.4-0.1-0.6-0.1h-1.6v3.2h1.6c0.2,0,0.4-0.1,0.6-0.1
	c0.2-0.1,0.4-0.2,0.5-0.3s0.2-0.3,0.3-0.5C90.1,92.6,90.1,92.4,90.1,92.2z M149.8,91.8c0.1,0.4,0.2,0.9,0.2,1.3s0,0.9-0.2,1.3
	c-0.1,0.4-0.3,0.8-0.5,1.2s-0.5,0.8-0.8,1.1s-0.7,0.6-1.1,0.8s-0.8,0.4-1.3,0.5c-0.4,0.1-0.9,0.2-1.4,0.2s-0.9-0.1-1.4-0.2
	c-0.4-0.1-0.9-0.3-1.3-0.5c-0.4-0.2-0.7-0.5-1.1-0.8c-0.3-0.3-0.6-0.7-0.8-1.1c-0.2-0.4-0.4-0.8-0.5-1.2c-0.1-0.4-0.2-0.9-0.2-1.3
	s0-0.9,0.2-1.3s0.3-0.8,0.5-1.2c0.2-0.4,0.5-0.8,0.8-1.1c0.3-0.3,0.7-0.6,1.1-0.8c0.4-0.2,0.8-0.4,1.3-0.5s0.9-0.2,1.4-0.2
	c0.5,0,0.9,0.1,1.4,0.2c0.4,0.1,0.9,0.3,1.3,0.5c0.4,0.2,0.7,0.5,1.1,0.8c0.3,0.3,0.6,0.7,0.8,1.1C149.5,90.9,149.7,91.3,149.8,91.8
	z M147.5,93.2c0-0.3-0.1-0.7-0.2-1.1c-0.1-0.3-0.3-0.6-0.6-0.8s-0.5-0.4-0.9-0.6c-0.3-0.2-0.7-0.2-1.1-0.2c-0.4,0-0.7,0.1-1.1,0.2
	c-0.3,0.2-0.6,0.3-0.9,0.6s-0.4,0.6-0.6,0.8c-0.1,0.3-0.2,0.7-0.2,1.1s0,0.7,0.2,1.1c0.1,0.3,0.3,0.6,0.6,0.8s0.5,0.4,0.9,0.6
	s0.7,0.2,1.1,0.2c0.4,0,0.7-0.1,1.1-0.2c0.3-0.2,0.6-0.3,0.9-0.6s0.4-0.6,0.6-0.8C147.4,93.9,147.5,93.6,147.5,93.2z M122.6,96.1
	h-0.3v0.3v1.4v0.3h0.3h1.5h0.3v-0.3v-1.4v-0.3h-0.3H122.6z"/>
</svg>
