<svg xmlns="http://www.w3.org/2000/svg" viewBox="0 0 200 100" xml:space="preserve">
  <path d="M54.6 88.1h.3V90.6H52v7.5H49.5v-7.5h-2.9V88.1h8zm26.9 4.7c-.3-.3-.6-.5-1-.7s-.8-.2-1.2-.2h-1.9c-.1 0-.2 0-.2-.1l-.2-.2c-.1-.1-.1-.2-.1-.2V91c0-.1.1-.2.1-.2 0-.1.1-.1.2-.2s.1-.1.2-.1h4.8V88h-4.8c-.4 0-.8.1-1.2.2-.4.2-.7.4-1 .7-.3.3-.5.6-.7 1-.1.4-.2.8-.2 1.2 0 .4.1.8.2 1.2s.4.7.7 1c.3.3.6.5 1 .7.4.2.8.2 1.2.2h1.9c.1 0 .2 0 .2.1l.2.2c.1.1.1.2.1.2v.4c0 .1-.1.2-.1.2 0 .1-.1.1-.2.2s-.1.1-.2.1h-4.6V98.1h4.6c.4 0 .8-.1 1.2-.2s.7-.4 1-.7c.3-.3.5-.6.7-1s.2-.8.2-1.2c0-.4-.1-.8-.2-1.2-.1-.4-.4-.7-.7-1zm8.2-31c2.6-2.5 4.6-5.5 6.1-8.9 1.5-3.4 2.2-7 2.2-10.9V0H83.8v42c0 1.9-.3 3.8-1.1 5.4-.7 1.7-1.7 3.2-3 4.5-1.3 1.2-2.8 2.2-4.5 3-1.7.8-3.6 1.1-5.5 1.1s-3.8-.3-5.5-1.1-3.2-1.8-4.5-3c-1.3-1.2-2.3-2.8-3-4.5S55.3 44 55.3 42V0H41.1v42c0 3.8.7 7.5 2.2 10.9 1.5 3.4 3.5 6.3 6 8.9 2.5 2.5 5.5 4.5 9 6 3.4 1.4 7.1 2.2 11.1 2.2 3.9 0 7.6-.8 11.1-2.2 3.6-1.5 6.6-3.5 9.2-6zM66 96.1h-.3v2h2.1v-2H66zm-3.9-8h-.3V91.2c0 .2 0 .4-.1.6-.1.2-.2.3-.3.5-.1.2-.3.2-.5.3s-.4.1-.6.1c-.2 0-.4-.1-.6-.1-.2-.1-.4-.2-.5-.3-.1-.2-.2-.3-.3-.5s-.1-.4-.1-.6V88.1H56.3V91.2c0 .4.1.9.2 1.3s.3.8.6 1.2c.3.3.6.7 1 .9.3.2.7.3 1 .5V98.2H61.6V95.1c.4-.1.7-.3 1-.5.4-.2.7-.6 1-.9s.5-.8.6-1.2c.1-.4.2-.8.2-1.3V88.1H62.1zM31 90.6c.2.5.3 1 .3 1.6v6H28.7V96.3h-3.3V98.2H22.9v-6c0-.6.1-1.1.3-1.6.2-.5.5-.9.9-1.3.4-.3.8-.7 1.3-.8s1-.3 1.6-.3 1.1.1 1.6.3c.5.2.9.5 1.3.8.6.4.9.8 1.1 1.3zm-2.2 1.6c0-.2 0-.4-.1-.6-.1-.2-.2-.3-.3-.5-.1-.2-.3-.2-.5-.3-.2-.1-.4-.1-.6-.1-.2 0-.4.1-.6.1-.2.1-.4.2-.5.3-.1.2-.2.3-.3.5s-.1.4-.1.6v1.6h3.3l-.3-1.6zm13.9-4.1h-.3V98.1H45V88.1h-2.3zm-32.1 3.7c.1.4.2.9.2 1.3 0 .5 0 .9-.2 1.4-.1.4-.3.9-.6 1.3s-.6.9-.9 1.2c-.3.2-.6.4-.9.7l1.3 1.9.3.4H6.8l-.1-.2-1.1-1.6h-.2c-.5 0-.9-.1-1.4-.2-.4-.1-.9-.3-1.3-.5s-.7-.5-1.1-.8-.6-.6-.9-1-.4-.8-.5-1.2-.2-.9-.2-1.4 0-.9.2-1.3c.1-.4.3-.8.5-1.2s.5-.8.8-1.1c.3-.3.7-.6 1.1-.8.4-.2.8-.4 1.3-.5s1-.2 1.5-.2.9.1 1.4.2c.4.1.9.3 1.3.5s.7.5 1.1.8c.3.3.6.7.8 1.1.3.3.5.7.6 1.2zm-2.3 1.4c0-.3-.1-.7-.2-1.1-.1-.3-.3-.6-.6-.8s-.5-.4-.9-.6c-.3-.2-.7-.2-1.1-.2s-.7.1-1.1.2c-.4.1-.7.3-.9.5s-.5.6-.6.9c-.1.3-.2.7-.2 1.1s0 .7.2 1.1c.1.3.3.6.6.8s.5.4.9.6c.3.2.7.2 1.1.2s.7-.1 1.1-.2c.3-.2.6-.3.9-.6s.4-.6.6-.8c.1-.4.2-.7.2-1.1zm10.3-5.1h-.3v6c0 .2 0 .4-.1.6s-.2.3-.4.5c-.1.2-.3.2-.5.3-.2.1-.4.1-.6.1-.2 0-.4-.1-.6-.1-.2-.1-.4-.2-.5-.3-.1-.2-.2-.3-.3-.5-.1-.2-.1-.4-.1-.6v-6H12.7v6c0 .6.1 1.1.3 1.6.2.5.5.9.9 1.3.4.3.8.7 1.3.8s1 .3 1.6.3c.6 0 1.1-.1 1.6-.3.5-.2.9-.5 1.3-.8s.7-.8.9-1.3c.2-.5.3-1 .3-1.6v-6h-2.3zm17.5 7.6v-7.5H33.6V98.2H41V95.7H36.1zM35.6 0H7.3v13.9h14.1v28c0 1.9-.3 3.8-1.1 5.4-.7 1.7-1.7 3.2-3 4.5-1.3 1.2-2.8 2.2-4.5 3S9.2 56 7.2 56c-1.2 0-2.5-.2-3.7-.5S1.2 54.7.1 54v15c2.4.7 4.8 1 7.2 1 3.9 0 7.6-.8 11.1-2.2s6.4-3.4 9-6c2.5-2.5 4.6-5.5 6.1-8.9 1.5-3.4 2.2-7 2.2-10.9V0h-.1zm133.8 90.6c.2.5.3 1 .3 1.6v6H167.2V96.3h-3.3V98.2H161.4v-6c0-.6.1-1.1.3-1.6.2-.5.5-.9.9-1.3.4-.3.8-.7 1.3-.8s1-.3 1.6-.3 1.1.1 1.6.3c.5.2.9.5 1.3.8.5.4.8.8 1 1.3zm-2.2 1.6c0-.2 0-.4-.1-.6-.1-.2-.2-.3-.3-.5-.1-.2-.3-.2-.5-.3-.2-.1-.4-.1-.6-.1-.2 0-.4.1-.6.1-.2.1-.4.2-.5.3-.1.2-.2.3-.3.5-.1.2-.1.4-.1.6v1.6h3.3l-.3-1.6zm-9.8-4.1h-.3V91.2c0 .2 0 .4-.1.6-.1.2-.2.3-.3.5-.1.2-.3.2-.5.3-.2.1-.4.1-.6.1s-.4-.1-.6-.1c-.2-.1-.4-.2-.5-.3-.1-.2-.2-.3-.3-.5-.1-.2-.1-.4-.1-.6V88.1h-2.5V91.2c0 .4.1.9.2 1.3s.3.8.6 1.2c.3.3.6.7 1 .9.3.2.7.3 1 .5V98.2H156.9V95.1c.4-.1.7-.3 1-.5.4-.2.7-.6 1-.9s.5-.8.6-1.2.2-.8.2-1.3V88.1h-2.3zm36.9 0h-.3V91.2c0 .2 0 .4-.1.6-.1.2-.2.3-.3.5-.1.2-.3.2-.5.3-.2.1-.4.1-.6.1s-.4-.1-.6-.1c-.2-.1-.4-.2-.5-.3-.1-.2-.2-.3-.3-.5s-.1-.4-.1-.6V88.1H188.5V91.2c0 .4.1.9.2 1.3s.3.8.6 1.2c.3.3.6.7 1 .9.3.2.7.3 1 .5V98.2H193.8V95.1c.4-.1.7-.3 1-.5.4-.2.7-.6 1-.9s.5-.8.6-1.2.2-.8.2-1.3V88.1h-2.3zm-19.9 7.6v-7.5H171.9V98.2H179.3V95.7H174.4zm4.6-7.6h-.3V90.6h2.9v7.5H184.1v-7.5h2.9V88.1h-8zm19.2 8h-.3v2h2.1v-2h-1.8zM156 0h-32.6c-2.9 0-5.7.6-8.3 1.6-2.6 1.1-4.8 2.6-6.7 4.5-1.9 1.9-3.4 4.1-4.6 6.7-1.1 2.6-1.7 5.2-1.7 8.2s.5 5.6 1.7 8.2c1.1 2.5 2.6 4.8 4.6 6.7 1.9 1.9 4.2 3.4 6.7 4.5 2.6 1.1 5.3 1.7 8.3 1.7h14.2c1 0 1.9.2 2.8.5.8.3 1.6.8 2.2 1.5.6.7 1.1 1.4 1.5 2.2.3.8.5 1.8.5 2.8s-.2 1.9-.5 2.8c-.3.8-.8 1.6-1.5 2.2-.6.7-1.4 1.2-2.2 1.5s-1.8.5-2.8.5H106v14h31.6c2.9 0 5.7-.6 8.3-1.7s4.8-2.6 6.8-4.5 3.4-4.1 4.5-6.7c1.1-2.5 1.6-5.2 1.6-8.2s-.5-5.6-1.6-8.2c-1.1-2.5-2.6-4.8-4.5-6.7-1.9-1.9-4.2-3.4-6.8-4.5s-5.3-1.6-8.3-1.6h-14.2c-1 0-1.9-.2-2.8-.5-.8-.4-1.6-.9-2.2-1.5-.6-.6-1.1-1.4-1.5-2.2s-.5-1.8-.5-2.8c0-1 .2-1.9.5-2.8.3-.9.8-1.6 1.5-2.2.6-.6 1.4-1.1 2.2-1.5.8-.4 1.8-.6 2.8-.6h41.1v56h14.2V14H200V0h-44zm29.8 70H200V56h-14.2v14zm-52.1 25.7v-7.5H131.2V98.2H138.6V95.7H133.7zm-12.9-3.9c.1.4.2.8.2 1.3 0 .4 0 .9-.2 1.3-.1.4-.3.8-.5 1.2-.2.3-.5.7-.8 1-.3.3-.6.6-1 .8-.4.2-.8.4-1.2.5-.4.1-.9.2-1.4.2H112.7V88.1H115.9c.5 0 .9.1 1.4.2.4.1.8.3 1.2.5s.7.5 1 .8c.3.3.6.7.8 1 .2.3.4.7.5 1.2zm-2.4 1.3c0-.3 0-.7-.2-1-.1-.3-.3-.6-.5-.8-.2-.2-.5-.4-.8-.6-.3-.2-.6-.2-1-.2h-.7v5.1h.7c.3 0 .7-.1 1-.2.3-.2.6-.3.8-.6.2-.2.4-.5.5-.8.2-.2.2-.6.2-.9zm-14.7-5h-.3V98.1h7.3V95.6H106v-1.3H109.2V91.8H106v-1.3h4.7V88h-7v.1zm-9.1 0h-.3V98.1h7.3V95.6h-4.7v-1.3H100.1V91.8H96.9v-1.3h4.7V88h-7v.1zm-2.1 3c.1.3.1.7.1 1.1 0 .6-.1 1.1-.3 1.6-.2.5-.5.9-.9 1.3s-.8.7-1.3.8c-.5.2-1 .3-1.6.3h-1.6V98.1H84.4V88.1h4.2c.4 0 .7.1 1.1.2s.7.2 1 .4c.3.2.6.4.8.7s.5.5.6.8c.2.2.3.6.4.9zm-2.4 1.1c0-.2 0-.4-.1-.6-.1-.2-.2-.3-.3-.5s-.3-.2-.5-.3c-.2-.1-.4-.1-.6-.1H87v3.2h1.6c.2 0 .4-.1.6-.1.2-.1.4-.2.5-.3s.2-.3.3-.5c.1-.4.1-.6.1-.8zm59.7-.4c.1.4.2.9.2 1.3s0 .9-.2 1.3c-.1.4-.3.8-.5 1.2s-.5.8-.8 1.1-.7.6-1.1.8-.8.4-1.3.5c-.4.1-.9.2-1.4.2s-.9-.1-1.4-.2c-.4-.1-.9-.3-1.3-.5s-.7-.5-1.1-.8c-.3-.3-.6-.7-.8-1.1-.2-.4-.4-.8-.5-1.2-.1-.4-.2-.9-.2-1.3s0-.9.2-1.3.3-.8.5-1.2c.2-.4.5-.8.8-1.1.3-.3.7-.6 1.1-.8.4-.2.8-.4 1.3-.5s.9-.2 1.4-.2c.5 0 .9.1 1.4.2.4.1.9.3 1.3.5s.7.5 1.1.8c.3.3.6.7.8 1.1.2.3.4.7.5 1.2zm-2.3 1.4c0-.3-.1-.7-.2-1.1-.1-.3-.3-.6-.6-.8s-.5-.4-.9-.6c-.3-.2-.7-.2-1.1-.2-.4 0-.7.1-1.1.2-.3.2-.6.3-.9.6s-.4.6-.6.8c-.1.3-.2.7-.2 1.1s0 .7.2 1.1c.1.3.3.6.6.8s.5.4.9.6.7.2 1.1.2c.4 0 .7-.1 1.1-.2.3-.2.6-.3.9-.6s.4-.6.6-.8c.1-.4.2-.7.2-1.1zm-24.9 2.9h-.3v2h2.1v-2h-1.8z"/>
</svg>
